<svg id="Layer_1" data-name="Layer 1" xmlns="http://www.w3.org/2000/svg" viewBox="0 0 1855.86 1327.37"><defs><style>.cls-1{fill:#22c476;}</style></defs><title>icon</title><path class="cls-1" d="M1429.07,601.43C1349.21,422,1169.44,297,960.36,297S571.63,422,491.65,601.31C233.46,628,32.07,846.17,32.07,1111.45c0,281.13,226,509.3,506.3,512.78,1.68.12,3.36.12,5,.12H545a97.61,97.61,0,0,0,70.85-32.07l247.63-278.6,27.74-31.11,146.87-165.24,19.69-22.1.6-.84,216.28-243.18L1321,799.09l128.37-144.46A495.57,495.57,0,0,0,1429.07,601.43Zm-214.6,22.69L997.11,868.75l-124.9,140.38L851.92,1032l-47.8,53.8L672,1234.3,502.1,1425.48c-154.8-20.78-274-153.47-274-314,0-141.11,92.1-260.6,219.4-301.67a317.31,317.31,0,0,1,195.86.24,317.19,317.19,0,0,1,317-317c105.32,0,198.63,51.39,256.27,130.41Z" transform="translate(-32.07 -297)"/><path class="cls-1" d="M1887.09,1141.23c-14.53,256.75-221.45,465.46-478.2,482-184,11.89-348.86-73.38-448.17-209.44l87.54-98.47,47.8-53.8a316.55,316.55,0,0,0,279.09,166.68,320.76,320.76,0,0,0,47.07-3.48,13.59,13.59,0,0,0,3.85-.6,115.86,115.86,0,0,0,12.85-2.4c4.68-.84,9.36-1.92,13.93-3.13a26,26,0,0,0,3.6-1c3.84-1,7.68-2.16,11.53-3.36a17,17,0,0,0,2.64-.72c2.76-1,5.52-1.8,8.29-2.88a108.82,108.82,0,0,0,10.44-3.84,131.11,131.11,0,0,0,13.33-5.53,126.88,126.88,0,0,0,13-6.12,316.7,316.7,0,0,0,169.93-220.13c-.12-.12,0-.12,0-.24a261,261,0,0,0,4.56-29.3,239.84,239.84,0,0,0,1.68-24.62c.24-3.24.24-6.48.24-9.72,0-8.29-.36-16.58-1.08-24.74-.24-4.09-.6-8.17-1.2-12.25a227.35,227.35,0,0,0-3.72-24,292.69,292.69,0,0,0-5.52-23.42,98,98,0,0,0-3.37-11.41,317,317,0,0,0-185.3-198.86l135-151.92C1790.66,757.06,1898.62,937.08,1887.09,1141.23Z" transform="translate(-32.07 -297)"/></svg>