<?xml version="1.0" encoding="utf-8"?>
<!-- Generator: Adobe Illustrator 22.0.0, SVG Export Plug-In . SVG Version: 6.00 Build 0)  -->
<svg version="1.1" id="Layer_1" xmlns="http://www.w3.org/2000/svg" xmlns:xlink="http://www.w3.org/1999/xlink" x="0px" y="0px"
	 viewBox="0 0 1920 533.1" style="enable-background:new 0 0 1920 533.1;" xml:space="preserve">
<style type="text/css">
	.st0{fill:#3A3C3F;}
</style>
<g>
	<path class="st0" d="M578,269.7v240h-83.6V275.1c0-53.4-28.6-84.4-75.1-84.4c-51.9,0-84.4,34.1-84.4,102.2v216.7h-83.6V275.1
		c0-53.4-26.3-84.4-72.8-84.4c-50.3,0-85.9,34.8-85.9,102.2v216.7H9.1v-387h83.6V169c24.8-37.9,61.9-56.5,110.7-56.5
		c49.5,0,85.9,20.1,109.9,61.2c25.5-41,65-61.2,118.4-61.2C519.2,112.5,578,173.7,578,269.7z"/>
	<path class="st0" d="M690.2,460.9c-39.5-39.5-59.6-87.5-59.6-144.7s20.1-105.3,59.6-144.7s88.2-58.8,144.7-58.8
		c57.3,0,105.3,19.4,144.7,58.8s59.6,87.5,59.6,144.7s-20.1,105.3-59.6,144.7s-87.5,58.8-144.7,58.8
		C778.4,519.7,729.7,500.3,690.2,460.9z M834.9,438.4c34.1,0,62.7-11.6,85.9-34.8c23.2-23.2,34.8-52.6,34.8-87.5
		s-11.6-64.2-34.8-87.5s-51.9-34.8-85.9-34.8c-34.1,0-62.7,11.6-85.9,34.8s-34.8,52.6-34.8,87.5s11.6,64.2,34.8,87.5
		C772.2,426.8,800.9,438.4,834.9,438.4z"/>
	<rect x="1093.1" y="122.6" class="st0" width="83.6" height="387"/>
	<path class="st0" d="M1471.4,203.1h-96v185.8c0,49.5,32.5,48.8,96,45.7v75.1c-127.7,15.5-179.6-19.4-179.6-120.8V203.1h-71.2v-80.5
		h71.2V39l83.6-24.8v108.4h96V203.1z"/>
	<path class="st0" d="M1093.1,38.9v35.3h83.5v-60L1093.1,38.9z"/>
	<path class="st0" d="M1829.4,122.6h83.6v387h-83.6v-55.7c-31.7,44.1-76.6,65.8-135.5,65.8c-53.4,0-98.3-19.4-136.2-58.8
		c-37.9-39.5-56.5-88.2-56.5-144.7c0-57.3,18.6-105.3,56.5-144.7c37.9-39.5,82.8-58.8,136.2-58.8c58.8,0,103.7,21.7,135.5,65V122.6z
		 M1707.1,440c34.8,0,64.2-11.6,87.5-34.8c23.2-24,34.8-53.4,34.8-89s-11.6-65-34.8-88.2c-23.2-24-52.6-35.6-87.5-35.6
		c-34.8,0-64.2,11.6-87.5,35.6c-23.2,23.2-34.8,52.6-34.8,88.2s11.6,65,34.8,89C1642.8,428.3,1672.2,440,1707.1,440z"/>
</g>
</svg>
